<svg xmlns="http://www.w3.org/2000/svg" width="12" height="12" viewBox="0 0 12 12"><rect width="12" height="12" fill="none"/><path fill="currentColor" d="M196.088,384.7h-9a1.5,1.5,0,0,0-1.5,1.5v9a1.5,1.5,0,0,0,1.5,1.5h9a1.5,1.5,0,0,0,1.5-1.5v-9A1.5,1.5,0,0,0,196.088,384.7Zm-6.375,5.625a1.125,1.125,0,0,1-1.125,1.125h-.75v1.5h-1.125v-4.5h1.875a1.125,1.125,0,0,1,1.125,1.125Zm3.75,1.5a1.125,1.125,0,0,1-1.125,1.125h-1.875v-4.5h1.875a1.125,1.125,0,0,1,1.125,1.125Zm3-2.25h-1.125v.75h1.125v1.125h-1.125v1.5h-1.125v-4.5h2.25Zm-8.625.75h.75v-.75h-.75Zm3.75,1.5h.75v-2.25h-.75Z" transform="translate(-185.588 -384.698)"/></svg>